<svg xmlns="http://www.w3.org/2000/svg" width="108.336" height="108.336" viewBox="0 0 108.336 108.336"><path d="M54.168 0C24.3 0 0 24.3 0 54.168c0 29.869 24.3 54.168 54.168 54.168s54.168-24.299 54.168-54.168C108.336 24.3 84.036 0 54.168 0zm21.734 91.701c-5.873 10.372-12.9 15.559-21.083 15.559-14.607 0-27.108-5.187-37.501-15.559C6.923 81.327 1.727 68.816 1.727 54.168c0-14.608 5.196-27.107 15.59-37.502C27.71 6.275 40.211 1.076 54.818 1.076c8.183 0 15.211 5.199 21.084 15.59 5.871 10.395 8.808 22.894 8.808 37.502 0 14.648-2.937 27.159-8.808 37.533z"/></svg>