<svg xmlns="http://www.w3.org/2000/svg" width="108.336" height="108.336" viewBox="0 0 108.336 108.336"><path d="M54.168 0C24.3 0 0 24.3 0 54.168c0 29.869 24.3 54.168 54.168 54.168s54.168-24.299 54.168-54.168C108.336 24.3 84.036 0 54.168 0zM23.72 91.702c8.49 10.373 18.689 15.558 30.597 15.558-14.607 0-27.119-5.185-37.532-15.558C6.371 81.329 1.164 68.816 1.164 54.168c0-14.607 5.208-27.107 15.622-37.502C27.198 6.274 39.71 1.077 54.317 1.077c-11.908 0-22.107 5.198-30.597 15.589-8.49 10.395-12.735 22.895-12.735 37.502 0 14.648 4.245 27.161 12.735 37.534z"/></svg>