<svg xmlns="http://www.w3.org/2000/svg" width="108.336" height="108.336" viewBox="0 0 108.336 108.336"><path d="M54.168 0C24.3 0 0 24.3 0 54.168c0 29.869 24.3 54.168 54.168 54.168s54.168-24.299 54.168-54.168C108.336 24.3 84.036 0 54.168 0zM28.352 91.702c7.221 10.373 15.926 15.558 26.115 15.558-14.566 0-27.047-5.185-37.44-15.558C6.632 81.329 1.437 68.816 1.437 54.168c0-14.607 5.196-27.107 15.59-37.502C27.42 6.274 39.9 1.077 54.467 1.077c-10.189 0-18.895 5.198-26.115 15.589-7.223 10.395-10.833 22.895-10.833 37.502 0 14.648 3.61 27.161 10.833 37.534z"/></svg>