<svg xmlns="http://www.w3.org/2000/svg" width="108.336" height="108.336" viewBox="0 0 108.336 108.336"><path d="M54.168 0C24.3 0 0 24.3 0 54.168c0 29.869 24.3 54.168 54.168 54.168s54.168-24.299 54.168-54.168C108.336 24.3 84.036 0 54.168 0zm31.111 91.701c-8.512 10.372-18.721 15.559-30.626 15.559-14.568 0-27.049-5.187-37.442-15.559C6.817 81.327 1.622 68.816 1.622 54.168c0-14.608 5.195-27.107 15.589-37.502C27.604 6.275 40.085 1.076 54.653 1.076c11.906 0 22.115 5.199 30.626 15.59 8.51 10.395 12.768 22.894 12.768 37.502 0 14.648-4.258 27.159-12.768 37.533z"/></svg>