<svg viewBox="0 0 30 30" xmlns="http://www.w3.org/2000/svg"><path d="M3.62 21.01c0-.25.08-.46.25-.63.17-.16.37-.24.6-.24h5.42c.74 0 1.37.26 1.89.79s.78 1.16.78 1.9-.26 1.38-.78 1.9-1.15.78-1.89.78-1.38-.26-1.9-.79c-.16-.16-.23-.36-.23-.6s.08-.45.23-.6c.15-.16.35-.24.6-.24.23 0 .43.08.61.24.2.19.43.29.69.29s.49-.1.68-.29.29-.42.29-.7c0-.26-.1-.49-.29-.68s-.42-.29-.68-.29H4.47c-.23 0-.43-.08-.6-.25s-.25-.35-.25-.59zm0-3.04c0-.24.08-.45.25-.62.17-.16.37-.24.6-.24h10.55c.26 0 .49-.1.68-.29s.29-.43.29-.69-.1-.5-.29-.69-.42-.29-.68-.29c-.28 0-.5.09-.68.28-.18.15-.39.23-.64.23-.24 0-.44-.08-.6-.23-.15-.15-.23-.35-.23-.6s.07-.45.23-.61c.51-.51 1.15-.76 1.92-.76.74 0 1.38.26 1.9.78s.78 1.15.78 1.88-.26 1.37-.78 1.89-1.15.78-1.9.78H4.47c-.24 0-.44-.08-.6-.24a.743.743 0 01-.25-.58zm2.15-2.36c0 .08.05.12.16.12h1.44c.08 0 .15-.05.22-.15.22-.54.58-.99 1.05-1.35.48-.36 1.01-.56 1.59-.6l.53-.08c.13 0 .2-.06.2-.17l.07-.52c.11-1.08.56-1.99 1.37-2.72s1.76-1.1 2.86-1.1c1.11 0 2.07.36 2.88 1.09s1.27 1.64 1.39 2.73l.07.59c0 .11.06.17.17.17h1.62c.91 0 1.68.32 2.33.96s.97 1.4.97 2.3c0 .89-.32 1.66-.97 2.3s-1.42.96-2.33.96h-6.91c-.12 0-.19.06-.19.17v1.39c0 .11.06.17.19.17h6.91c.91 0 1.74-.22 2.51-.67.77-.44 1.37-1.05 1.82-1.81.45-.77.67-1.6.67-2.5 0-.91-.22-1.74-.67-2.5s-1.05-1.37-1.82-1.81-1.6-.67-2.51-.67h-.31c-.31-1.33-1.01-2.42-2.1-3.27-1.08-.85-2.33-1.27-3.73-1.27-1.41 0-2.66.44-3.75 1.32s-1.78 2-2.07 3.37c-.86.2-1.62.61-2.28 1.23s-1.12 1.36-1.38 2.21v.04z"/></svg>