<svg viewBox="0 0 30 30" xmlns="http://www.w3.org/2000/svg"><path d="M4.4 14.9c0-.2.1-.4.2-.6.2-.2.4-.2.6-.2h2c.2 0 .4.1.6.2.2.2.2.4.2.6s0 .5-.2.6c-.2.2-.3.2-.6.2h-2c-.2 0-.4-.1-.6-.2-.1-.1-.2-.3-.2-.6zm2.8 6.9c0-.2.1-.4.2-.6l1.5-1.4c.1-.2.4-.2.6-.2s.4.1.6.2.2.3.2.6c0 .2-.1.5-.2.6l-1.4 1.4c-.4.3-.8.3-1.2 0-.2-.1-.3-.3-.3-.6zM7.2 8c0-.2.1-.4.2-.6.2-.2.4-.2.6-.2s.4.1.6.2L10 8.9c.2.1.2.4.2.6s-.1.4-.2.6-.4.2-.6.2-.4-.1-.6-.2L7.5 8.6c-.2-.1-.3-.4-.3-.6zm2.6 6.9c0-.9.2-1.8.7-2.6s1.1-1.4 1.9-1.9 1.7-.7 2.6-.7c.7 0 1.4.1 2 .4s1.2.6 1.7 1.1.8 1 1.1 1.7c.3.6.4 1.3.4 2 0 .9-.2 1.8-.7 2.6s-1.1 1.4-1.9 1.9-1.7.7-2.6.7-1.8-.2-2.6-.7-1.4-1.1-1.9-1.9-.7-1.6-.7-2.6zm1.7 0c0 1 .3 1.8 1 2.5s1.5 1 2.5 1 1.8-.4 2.5-1 1-1.5 1-2.5-.4-1.8-1-2.5c-.7-.7-1.5-1-2.5-1s-1.8.3-2.5 1-1 1.6-1 2.5zm2.6 7.8c0-.2.1-.4.2-.6s.4-.2.6-.2.4.1.6.2.2.4.2.6v2c0 .2-.1.5-.2.6s-.4.2-.6.2-.4-.1-.6-.2c-.2-.2-.2-.4-.2-.6zm0-15.5v-2c0-.2.1-.4.2-.6s.4-.3.6-.3.4.1.6.2.2.4.2.6v2.1c0 .2-.1.4-.2.6s-.3.2-.5.2-.4-.1-.6-.2-.3-.4-.3-.6zm5.6 13.2c0-.2.1-.4.2-.6s.3-.2.6-.2c.2 0 .4.1.6.2l1.5 1.4c.2.2.2.4.2.6s-.1.4-.2.6c-.4.3-.8.3-1.2 0L19.9 21c-.2-.2-.2-.4-.2-.6zm0-10.9c0-.2.1-.4.2-.6l1.4-1.5c.2-.2.4-.2.6-.2s.4.1.6.2c.2.2.2.4.2.6s-.1.5-.2.6L21 10.1c-.2.2-.4.2-.6.2s-.4-.1-.6-.2-.1-.4-.1-.6zm2.2 5.4c0-.2.1-.4.2-.6.2-.2.4-.2.6-.2h2c.2 0 .4.1.6.3s.3.4.3.6-.1.4-.3.6-.4.2-.6.2h-2c-.2 0-.4-.1-.6-.2s-.2-.4-.2-.7z"/></svg>