<svg viewBox="0 0 30 30" xmlns="http://www.w3.org/2000/svg"><path d="M4.92 13.5c0 .18.06.31.17.4.12.11.26.17.42.17h10.4c.18 0 .33.06.46.19.13.12.2.28.2.46s-.07.34-.2.47-.28.2-.46.2-.34-.07-.47-.21a.603.603 0 00-.4-.16c-.16 0-.3.05-.41.16s-.16.24-.16.39c0 .16.06.3.17.41.36.36.78.53 1.28.53.49 0 .91-.17 1.26-.52s.52-.77.52-1.27c0-.49-.17-.92-.52-1.27s-.77-.53-1.26-.53H5.51c-.16 0-.3.06-.42.17-.11.12-.17.25-.17.41zm0-2.02c0 .17.06.3.17.39.12.11.26.16.42.16h13.81c.49 0 .92-.18 1.27-.52.35-.35.52-.77.52-1.27 0-.49-.17-.91-.52-1.26s-.77-.52-1.27-.52c-.49 0-.91.17-1.27.51-.11.12-.16.27-.16.42 0 .16.05.3.16.4s.24.15.4.15c.15 0 .29-.05.41-.16a.61.61 0 01.45-.18c.17 0 .33.06.46.18s.2.27.2.45-.07.34-.2.47-.28.2-.46.2H5.51c-.16 0-.3.06-.42.17-.11.11-.17.25-.17.41zm13.41 7.24c0 .96.25 1.73.75 2.31s1.26.87 2.29.87c.95 0 1.73-.29 2.35-.87s.92-1.34.92-2.28c0-.64-.22-1.17-.67-1.57s-.99-.6-1.65-.6c-.73 0-1.3.25-1.72.75h-.02c.33-1.16.88-1.74 1.65-1.74.25 0 .44.05.58.14.12.09.2.22.23.41h2.11a2.25 2.25 0 00-.19-.84c-.12-.25-.26-.46-.44-.62s-.39-.3-.63-.4c-.24-.11-.49-.18-.75-.23-.26-.04-.52-.07-.8-.07-.62 0-1.18.12-1.68.36s-.88.54-1.17.89c-.28.35-.52.75-.71 1.2s-.31.86-.38 1.23c-.04.38-.07.73-.07 1.06zm2.05.45c0-.37.12-.65.37-.84.24-.19.52-.29.82-.29.19 0 .35.03.48.08s.23.12.3.19.12.16.15.27c.04.11.06.19.07.25s.01.12.01.19c0 .31-.11.58-.32.79s-.5.32-.85.32c-.31 0-.55-.09-.75-.27a.91.91 0 01-.28-.69z"/></svg>