<svg viewBox="0 0 30 30" xmlns="http://www.w3.org/2000/svg"><path d="M3.7 15c0-2 .5-3.9 1.5-5.7s2.4-3.1 4.1-4.1S13 3.7 15 3.7c1.5 0 3 .3 4.4.9S22 6 23 7s1.8 2.2 2.4 3.6.9 2.9.9 4.4c0 1.5-.3 3-.9 4.4S24 22 23 23s-2.2 1.8-3.6 2.4-2.8.9-4.4.9-3-.3-4.4-.9S8 24 7 23s-1.8-2.2-2.4-3.6-.9-2.9-.9-4.4zm2.5 0c0 2.4.9 4.4 2.6 6.2 1.7 1.7 3.8 2.6 6.2 2.6 1.6 0 3-.4 4.4-1.2s2.4-1.9 3.2-3.2 1.2-2.8 1.2-4.4-.4-3.1-1.2-4.4-1.9-2.4-3.2-3.2-2.8-1.2-4.4-1.2-3 .4-4.4 1.2-2.4 1.9-3.2 3.2-1.2 2.8-1.2 4.4zm4.9 5.9l3.8-13.1c0-.1.1-.2.1-.2s.1.1.1.2l3.7 13.1v.2s-.1.1-.2 0l-3.5-1.3h-.3l-3.5 1.3c-.1.1-.2.1-.2 0v-.2z"/></svg>