<svg enable-background="new 0 0 30 30" viewBox="0 0 30 30" xmlns="http://www.w3.org/2000/svg"><path d="m7.69 13.2c0-.99.19-1.94.58-2.85s.91-1.68 1.57-2.33 1.44-1.17 2.34-1.56 1.85-.58 2.84-.58 1.94.19 2.85.58c.9.39 1.68.91 2.33 1.56s1.17 1.43 1.56 2.33.58 1.85.58 2.85c0 1.62-.48 3.06-1.44 4.34-.96 1.27-2.2 2.14-3.71 2.61v3.29h-4.24v-3.25c-1.54-.45-2.81-1.32-3.79-2.61s-1.47-2.75-1.47-4.38zm1.61 0c0 1.55.56 2.88 1.69 3.99 1.11 1.12 2.45 1.68 4.02 1.68 1.03 0 1.99-.25 2.86-.76.88-.51 1.57-1.2 2.09-2.07.51-.87.77-1.82.77-2.85 0-.77-.15-1.5-.45-2.21s-.71-1.31-1.22-1.82-1.12-.92-1.83-1.22-1.44-.45-2.21-.45-1.5.15-2.21.45-1.31.71-1.82 1.22-.92 1.12-1.22 1.82c-.32.72-.47 1.45-.47 2.22zm.58.36v-.72h2.17v.72zm1.09-3.54.52-.52 1.52 1.52-.52.53zm2.53 4.93c0-.42.15-.78.44-1.09s.65-.47 1.06-.48l2.73-4.49.66.35-2.02 4.83c.18.25.26.54.26.88 0 .44-.15.81-.46 1.11s-.68.45-1.12.45c-.43 0-.8-.15-1.1-.45s-.45-.67-.45-1.11zm1.31-4.67v-2.16h.69v2.17h-.69zm2.94 3.27v-.74h2.17v.74z"/></svg>