<svg enable-background="new 0 0 30 30" viewBox="0 0 30 30" xmlns="http://www.w3.org/2000/svg"><path d="m.45 20.97c0 .24.08.45.24.61.44.18.73.27.88.27h7.88c.24 0 .44-.09.6-.26.17-.17.25-.38.25-.61s-.08-.43-.25-.59-.37-.24-.6-.24h-7.88c-.26 0-.52.08-.76.24s-.36.36-.36.58zm1.39-3c0 .24.08.43.25.59.15.17.34.26.58.26h9.4c.24 0 .44-.08.61-.25s.25-.37.25-.6c0-.24-.08-.44-.25-.61s-.37-.25-.61-.25h-9.4c-.23 0-.43.08-.59.25s-.24.37-.24.61zm1.05-2.37c0 .09.06.13.17.13h1.39c.12 0 .19-.04.22-.13.26-.53.62-.97 1.09-1.32s1-.55 1.58-.62h.54c.11 0 .16-.06.16-.19l.07-.56c.07-.71.3-1.36.69-1.95.39-.58.9-1.04 1.53-1.37s1.3-.5 2.02-.5c1.09 0 2.04.37 2.85 1.1s1.27 1.64 1.39 2.72l.07.56c0 .12.06.19.18.19h1.6c.89 0 1.65.32 2.3.96s.97 1.39.97 2.27c0 .9-.32 1.67-.97 2.31-.64.64-1.41.96-2.31.96h-6.89c-.11 0-.17.06-.17.19v1.33c0 .12.06.18.17.18h6.89c.9 0 1.73-.22 2.49-.67.76-.44 1.37-1.05 1.81-1.81s.67-1.59.67-2.49c0-.73-.14-1.39-.43-2.01.78-.96 1.16-2.06 1.16-3.28 0-.94-.24-1.81-.71-2.62s-1.11-1.45-1.92-1.92-1.69-.71-2.63-.71c-.73 0-1.43.15-2.1.45s-1.25.71-1.74 1.25c-.83-.43-1.73-.65-2.7-.65-1.41 0-2.67.44-3.76 1.31s-1.79 1.99-2.09 3.36c-.85.21-1.6.63-2.25 1.25s-1.1 1.36-1.35 2.21c.02.02.01.04.01.07zm.71 8.56c0 .24.09.43.26.59.16.17.36.25.59.25h9.42c.23 0 .43-.08.59-.25s.24-.36.24-.6c0-.25-.08-.46-.24-.62s-.36-.25-.6-.25h-9.41c-.24 0-.44.08-.6.25s-.25.38-.25.63zm7.49-19.51c0 .25.08.45.24.6l.64.66c.16.16.36.24.6.24.26 0 .46-.08.62-.24s.24-.36.24-.61c0-.23-.08-.43-.24-.59l-.65-.65c-.17-.17-.36-.25-.57-.25-.25 0-.46.08-.63.25s-.25.36-.25.59zm5.36 4.38c.66-.63 1.48-.95 2.45-.95s1.8.34 2.49 1.03c.68.68 1.03 1.51 1.03 2.49 0 .67-.15 1.27-.46 1.81-.94-.95-2.11-1.43-3.5-1.43h-.3c-.29-1.15-.86-2.13-1.71-2.95zm1.6-5.22c0 .24.08.43.25.59s.36.23.6.23c.25 0 .45-.08.6-.23s.23-.35.23-.6v-2.04c0-.24-.08-.45-.23-.61-.16-.17-.36-.25-.6-.25-.23 0-.43.08-.6.25s-.25.37-.25.61zm5.52 2.28c0 .24.08.44.25.6.12.16.33.24.6.24s.47-.08.59-.24l1.46-1.44c.16-.15.24-.36.24-.62 0-.23-.08-.43-.25-.6s-.37-.25-.6-.25-.44.08-.61.23l-1.42 1.49c-.17.17-.26.36-.26.59zm.8 11.86c0 .24.08.44.23.6l.66.63c.24.18.45.27.61.27s.37-.09.61-.27c.16-.16.24-.36.24-.6 0-.23-.08-.43-.24-.61l-.64-.61c-.19-.17-.4-.26-.65-.26-.24 0-.43.08-.59.24-.15.17-.23.37-.23.61zm1.44-6.32c0 .24.09.45.27.61.18.17.38.25.6.25h2.03c.23 0 .42-.08.59-.25s.25-.37.25-.61c0-.22-.08-.41-.24-.57-.16-.15-.36-.23-.59-.23h-2.03c-.24 0-.45.08-.62.23-.17.16-.26.35-.26.57z"/></svg>