<svg enable-background="new 0 0 30 30" viewBox="0 0 30 30" xmlns="http://www.w3.org/2000/svg"><path d="m1.49 16.88c0 1.12.33 2.12 1 3s1.53 1.47 2.58 1.76l-.66 1.7c-.05.14 0 .22.14.22h2.13l-1.43 4.21h.29l4.36-5.66c.04-.04.04-.09.02-.14s-.07-.07-.14-.07h-2.19l2.49-4.65c.07-.14.03-.22-.14-.22h-2.96c-.09 0-.17.05-.23.15l-1.07 2.88c-.72-.18-1.32-.56-1.78-1.16-.47-.59-.7-1.26-.7-2.02 0-.84.28-1.57.84-2.18s1.27-.97 2.11-1.07l.51-.03c.12 0 .19-.05.22-.14l.07-.59c.11-1.08.56-1.99 1.37-2.72s1.76-1.1 2.86-1.1c1.09 0 2.04.37 2.86 1.1s1.29 1.64 1.4 2.72l.08.59c0 .11.06.17.18.17h1.61c.89 0 1.66.32 2.31.96s.97 1.4.97 2.29c0 .87-.3 1.62-.9 2.26s-1.32.98-2.18 1.03c-.13 0-.2.06-.2.18v1.34c0 .11.07.17.2.17.88-.02 1.69-.26 2.42-.72.73-.45 1.31-1.06 1.74-1.81s.64-1.57.64-2.45c0-.73-.14-1.4-.43-2.02.76-.96 1.14-2.06 1.14-3.29 0-.95-.24-1.83-.71-2.64s-1.11-1.45-1.92-1.92-1.69-.71-2.64-.71c-.72 0-1.42.15-2.1.45s-1.26.72-1.76 1.25c-.81-.43-1.71-.65-2.72-.65-1.42 0-2.68.44-3.77 1.32s-1.8 2-2.1 3.37c-1.11.26-2.02.84-2.74 1.74-.71.92-1.07 1.95-1.07 3.1zm8.41-12.29c0 .23.08.43.25.6l.65.66c.16.16.34.24.55.26.21.03.41-.04.61-.23.2-.18.3-.39.3-.64 0-.23-.08-.43-.25-.6l-.63-.66c-.16-.16-.36-.24-.6-.24-.25 0-.46.08-.63.24-.16.18-.25.38-.25.61zm1.18 18.37c0 .24.08.44.24.59.16.16.36.24.58.24.24 0 .44-.08.61-.24s.25-.36.25-.59c0-.24-.08-.44-.25-.61s-.37-.26-.61-.26c-.22 0-.41.09-.58.26s-.24.37-.24.61zm0-3.64c0 .24.08.43.24.58.16.16.36.24.58.24.24 0 .45-.08.61-.23s.25-.35.25-.59c0-.23-.08-.43-.25-.6s-.37-.25-.61-.25c-.23 0-.42.08-.58.25s-.24.37-.24.6zm0 7.31c0 .22.08.41.24.57.17.17.36.25.58.25.24 0 .44-.08.61-.24s.25-.35.25-.59-.08-.44-.25-.61-.37-.26-.61-.26c-.22 0-.41.09-.58.26-.16.18-.24.39-.24.62zm3.23-5.61c0 .24.08.44.25.6s.36.25.6.25c.23 0 .43-.08.59-.25s.24-.37.24-.6c0-.22-.08-.42-.24-.58s-.35-.24-.59-.24c-.23 0-.43.08-.6.24s-.25.35-.25.58zm0 3.64c0 .23.08.42.24.58s.36.24.6.24.43-.08.59-.24.23-.35.23-.59-.08-.43-.23-.59c-.16-.16-.35-.23-.59-.23s-.44.08-.6.23c-.16.16-.24.36-.24.6zm1-15.64c.67-.64 1.48-.97 2.45-.97.98 0 1.82.34 2.51 1.03.69.68 1.04 1.52 1.04 2.5 0 .66-.16 1.26-.47 1.81-.96-.96-2.13-1.44-3.52-1.44h-.31c-.29-1.19-.86-2.17-1.7-2.93zm1.6-5.27c0 .24.08.44.25.61s.37.25.6.25c.24 0 .44-.08.6-.25s.24-.37.24-.61v-2.06c0-.24-.08-.45-.24-.61-.16-.17-.36-.26-.6-.26s-.44.08-.6.25-.25.37-.25.61zm5.58 2.29c0 .24.08.44.23.6.14.16.32.24.55.26s.44-.07.63-.26l1.44-1.44c.18-.16.26-.36.26-.6s-.09-.44-.26-.6c-.16-.18-.36-.26-.6-.26-.23 0-.42.09-.58.26l-1.44 1.44c-.16.15-.23.35-.23.6zm.77 11.91c0 .23.08.43.25.6l.65.63c.18.17.39.25.62.25l.02.02c.22 0 .4-.09.54-.27.18-.16.26-.36.26-.6 0-.23-.09-.43-.26-.61l-.62-.62c-.18-.18-.38-.27-.61-.27-.24 0-.44.09-.6.26s-.25.38-.25.61zm1.47-6.37c0 .24.09.44.26.59.16.18.36.26.6.26h2.06c.24 0 .44-.08.61-.25s.25-.37.25-.6-.08-.44-.25-.6-.37-.24-.61-.24h-2.06c-.24 0-.45.08-.61.24-.17.16-.25.36-.25.6z"/></svg>