<svg enable-background="new 0 0 30 30" viewBox="0 0 30 30" xmlns="http://www.w3.org/2000/svg"><path d="m4.25 16.89c0 1.33.46 2.48 1.39 3.43.93.96 2.06 1.47 3.4 1.54.12 0 .18-.06.18-.18v-1.33c0-.12-.06-.18-.18-.18-.86-.04-1.58-.38-2.18-1.02s-.9-1.39-.9-2.26c0-.83.28-1.55.84-2.17.56-.61 1.26-.97 2.1-1.07l.52-.07c.13 0 .2-.06.2-.18l.08-.51c.11-1.08.56-1.99 1.37-2.71.81-.73 1.76-1.09 2.85-1.09s2.04.37 2.86 1.1 1.28 1.63 1.4 2.71l.07.58c0 .12.06.18.18.18h1.62c.91 0 1.68.32 2.32.95s.96 1.39.96 2.29c0 .87-.3 1.62-.9 2.26s-1.33.98-2.18 1.02c-.13 0-.19.06-.19.18v1.33c0 .12.06.18.19.18.88-.03 1.68-.27 2.41-.72s1.31-1.05 1.73-1.8.63-1.57.63-2.44c0-.74-.14-1.41-.43-2.01.79-.96 1.18-2.06 1.18-3.32 0-.94-.24-1.82-.71-2.62-.47-.81-1.11-1.45-1.92-1.92s-1.68-.71-2.62-.71c-1.56 0-2.85.58-3.88 1.73-.82-.44-1.72-.66-2.71-.66-1.41 0-2.67.44-3.76 1.32s-1.8 2-2.11 3.36c-1.1.26-2.01.84-2.73 1.74-.72.89-1.08 1.92-1.08 3.07zm5.37 6.98c.09.22.24.37.46.46.2.1.41.11.62.02.22-.08.36-.23.45-.45s.09-.44.01-.65c-.08-.22-.23-.37-.44-.47-.2-.08-.4-.08-.61.01s-.36.23-.46.43c-.11.17-.12.39-.03.65zm.63-2.83c0 .16.05.31.15.46s.26.25.46.31c.22.07.44.05.65-.06s.35-.29.43-.55l.98-3.11c.07-.24.05-.47-.08-.67-.12-.2-.31-.33-.55-.38-.22-.07-.43-.05-.62.06-.2.11-.33.28-.4.5l-1 3.18zm1.86 5.6c0 .07.02.17.06.29.09.22.25.38.46.45.08.05.19.08.33.08.06 0 .16-.02.3-.06.22-.08.38-.23.47-.45.1-.22.1-.44 0-.66s-.25-.37-.45-.46-.41-.09-.62-.01c-.19.08-.33.2-.42.36s-.13.31-.13.46zm.74-2.67c0 .18.05.33.15.48.1.14.26.24.48.28.02 0 .06.01.11.02s.1.02.13.02c.43-.03.7-.24.81-.62l1.76-6.07c.07-.24.05-.46-.06-.65s-.28-.32-.5-.39c-.23-.07-.45-.05-.65.06s-.33.28-.4.5l-1.8 6.07c0 .02 0 .06-.01.1s-.01.08-.01.11c-.01.04-.01.07-.01.09zm3.44-.4c0 .1.02.21.05.32.08.21.23.36.46.44.09.04.21.07.36.07.12 0 .22-.02.29-.06.23-.09.38-.23.46-.43.08-.22.08-.43 0-.65-.08-.21-.22-.37-.42-.48-.22-.08-.44-.08-.65.01-.22.09-.37.23-.47.43-.05.11-.08.22-.08.35zm.72-2.54c0 .36.21.61.62.75.14.04.24.06.3.06.12 0 .23-.03.34-.08.17-.09.31-.27.4-.55l.98-3.11c.08-.23.05-.45-.06-.64-.12-.2-.29-.33-.51-.4-.23-.07-.44-.05-.64.06-.19.11-.33.28-.4.5l-.98 3.13c-.04.16-.05.26-.05.28zm1.03-12.01c.69-.66 1.51-.99 2.48-.99s1.81.35 2.5 1.04 1.04 1.53 1.04 2.5c0 .62-.17 1.23-.52 1.84-.98-.98-2.14-1.47-3.49-1.47h-.33c-.31-1.16-.87-2.13-1.68-2.92z"/></svg>