<?xml version="1.0" encoding="utf-8"?>
<!-- Generator: Adobe Illustrator 24.0.3, SVG Export Plug-In . SVG Version: 6.00 Build 0)  -->
<svg version="1.1" id="Capa_1" xmlns="http://www.w3.org/2000/svg" xmlns:xlink="http://www.w3.org/1999/xlink" x="0px" y="0px"
	 viewBox="0 0 108.3 108.3" style="enable-background:new 0 0 108.3 108.3;" xml:space="preserve">
<style type="text/css">
	.st0{stroke:#000000;stroke-width:3;stroke-miterlimit:10;}
</style>
<g>
	<path class="st0" d="M54.2,5.4C27.3,5.4,5.4,27.3,5.4,54.2c0,26.9,21.9,48.8,48.8,48.8s48.8-21.9,48.8-48.8
		C102.9,27.3,81,5.4,54.2,5.4z M88.2,87.9c-9.4,9.3-20.6,14-33.6,14c-5.2,0-9.7-4.7-13.5-14c-3.8-9.3-5.7-20.6-5.7-33.8
		c0-13.1,1.9-24.4,5.7-33.8c3.8-9.4,8.3-14,13.5-14c13,0,24.2,4.7,33.6,14c9.4,9.4,14.1,20.6,14.1,33.8
		C102.2,67.4,97.5,78.6,88.2,87.9z"/>
</g>
</svg>
