<?xml version="1.0" encoding="utf-8"?>
<!-- Generator: Adobe Illustrator 24.0.3, SVG Export Plug-In . SVG Version: 6.00 Build 0)  -->
<svg version="1.1" id="Capa_1" xmlns="http://www.w3.org/2000/svg" xmlns:xlink="http://www.w3.org/1999/xlink" x="0px" y="0px"
	 viewBox="0 0 108.3 108.3" style="enable-background:new 0 0 108.3 108.3;" xml:space="preserve">
<style type="text/css">
	.st0{stroke:#000000;stroke-width:2.7;stroke-miterlimit:10;}
</style>
<g>
	<path class="st0" d="M54.2,5.4C27.3,5.4,5.4,27.3,5.4,54.2c0,26.9,21.9,48.8,48.8,48.8s48.8-21.9,48.8-48.8
		C102.9,27.3,81,5.4,54.2,5.4z M41.2,87.9c3.8,9.3,8.3,14,13.5,14c-13.2,0-24.5-4.7-33.8-14C11.5,78.6,6.8,67.4,6.8,54.2
		c0-13.1,4.7-24.4,14.1-33.8c9.4-9.4,20.6-14,33.8-14c-5.2,0-9.7,4.7-13.5,14c-3.8,9.4-5.7,20.6-5.7,33.8
		C35.5,67.4,37.4,78.6,41.2,87.9z"/>
</g>
</svg>
