<svg enable-background="new 0 0 30 30" viewBox="0 0 30 30" xmlns="http://www.w3.org/2000/svg"><path d="m1.48 21.1c0 .24.09.44.27.6.17.17.37.25.61.25h5.88c.26 0 .48.09.68.28s.3.42.3.68-.1.5-.3.69-.42.29-.68.29-.48-.1-.68-.3c-.18-.16-.38-.24-.61-.24-.24 0-.44.08-.6.24s-.24.36-.24.6.08.44.24.6c.53.53 1.16.8 1.89.8.74 0 1.37-.26 1.88-.78s.78-1.15.78-1.89-.26-1.37-.78-1.89-1.15-.78-1.88-.78h-5.88c-.24 0-.44.08-.62.25-.17.17-.26.37-.26.6zm0-3.01c0 .23.09.42.27.58.16.16.37.24.61.24h10.97c.74 0 1.37-.26 1.89-.78s.78-1.15.78-1.89-.26-1.36-.78-1.88c-.52-.51-1.15-.77-1.89-.77-.76 0-1.38.25-1.88.76-.16.16-.23.37-.23.61s.08.44.23.6c.15.15.35.23.6.23.24 0 .44-.08.62-.23.19-.19.41-.28.68-.28s.49.09.68.28.29.42.29.68c0 .27-.1.5-.29.69s-.42.29-.68.29h-10.99c-.24 0-.44.09-.62.26-.17.18-.26.38-.26.61zm5.79-6.54c0-.24.09-.44.26-.62.18-.16.38-.24.6-.24h2.03c.23 0 .42.08.58.25s.23.37.23.61-.08.44-.23.6c-.16.17-.35.25-.58.25h-2.03c-.24 0-.44-.08-.61-.25s-.25-.37-.25-.6zm2.85-6.92c0-.23.08-.43.23-.61.19-.16.41-.24.64-.24.22 0 .42.08.59.24l1.43 1.47c.16.15.24.35.24.59s-.08.44-.24.6-.36.24-.59.24c-.24 0-.44-.08-.59-.24l-1.47-1.43c-.16-.17-.24-.37-.24-.62zm2.56 6.8v-.07c.02-.91.27-1.75.74-2.53.48-.77 1.11-1.38 1.9-1.83s1.65-.67 2.57-.67c.7 0 1.37.14 2.02.42.64.28 1.2.65 1.66 1.12.47.47.84 1.02 1.11 1.66s.41 1.32.41 2.02c0 .94-.23 1.8-.69 2.6s-1.09 1.43-1.88 1.89c-.79.47-1.66.7-2.6.71h-.21c-.07 0-.13-.02-.17-.07-.05-.05-.07-.11-.07-.18v-1.22c0-.13.07-.2.22-.2h.24c.96-.01 1.79-.35 2.47-1.05.68-.69 1.03-1.52 1.03-2.49 0-.96-.35-1.78-1.04-2.47-.69-.68-1.52-1.02-2.5-1.02-.94 0-1.76.32-2.44.98-.68.65-1.04 1.44-1.08 2.37 0 .06-.03.11-.08.17s-.14.09-.26.09h-1.13c-.15.01-.22-.07-.22-.23zm4.35 9.88v-1.99c0-.24.08-.44.25-.6s.37-.24.6-.24c.25 0 .45.08.61.24s.24.36.24.6v1.99c0 .24-.08.45-.25.62s-.37.25-.6.25c-.24 0-.44-.08-.6-.25s-.25-.38-.25-.62zm0-17.48v-2.05c0-.23.08-.43.25-.6s.37-.25.6-.25c.24 0 .44.08.6.25s.25.37.25.6v2.04c0 .23-.08.42-.25.58-.17.15-.37.23-.6.23-.24 0-.44-.08-.6-.23s-.25-.34-.25-.57zm5.53 13.18c0-.23.08-.42.23-.56.15-.16.34-.23.57-.23.24 0 .44.08.6.23l1.45 1.42c.16.17.24.38.24.61s-.08.43-.24.59c-.4.31-.8.31-1.2 0l-1.42-1.43c-.16-.16-.23-.38-.23-.63zm0-10.93c0-.25.08-.45.23-.59l1.42-1.47c.18-.16.37-.24.59-.24.23 0 .43.08.6.25s.25.37.25.6c0 .25-.08.46-.24.62l-1.45 1.43c-.18.16-.38.24-.6.24-.23 0-.41-.08-.57-.24s-.23-.36-.23-.6zm2.26 5.47c0-.24.08-.44.24-.62.16-.16.35-.24.57-.24h2.02c.23 0 .43.09.61.26s.26.37.26.6-.09.43-.26.6c-.18.17-.38.25-.61.25h-2.02c-.23 0-.42-.08-.58-.25-.16-.16-.23-.36-.23-.6z"/></svg>