<svg enable-background="new 0 0 30 30" viewBox="0 0 30 30" xmlns="http://www.w3.org/2000/svg"><path d="m3.09 13.43c0 .27.09.49.28.67s.43.26.72.26h1.69c.27 0 .5-.09.69-.27s.29-.4.29-.66c0-.29-.09-.53-.28-.71s-.42-.28-.69-.28h-1.7c-.29 0-.53.09-.72.28-.19.17-.28.41-.28.71zm1.77 6.18c0 .97.35 1.81 1.06 2.52s1.54 1.06 2.51 1.06h6.86c.97 0 1.8-.35 2.49-1.05s1.04-1.54 1.04-2.53c0-.48-.07-.89-.21-1.23.83-.53 1.49-1.24 1.97-2.12s.73-1.83.73-2.84c0-.81-.16-1.59-.48-2.33s-.75-1.38-1.28-1.91-1.17-.96-1.91-1.28-1.51-.48-2.32-.48c-1.09 0-2.1.27-3.02.81s-1.65 1.27-2.18 2.18c-.53.92-.79 1.92-.79 3.01v.34c-1 .57-1.66 1.4-1.98 2.49-.76.24-1.36.66-1.81 1.27s-.68 1.31-.68 2.09zm1.56-14.16c0 .28.09.51.26.67l1.61 1.69c.47.36.94.36 1.41 0 .19-.19.28-.42.28-.7 0-.27-.09-.5-.28-.7l-1.65-1.65c-.21-.19-.45-.29-.7-.29-.28 0-.51.09-.68.28s-.25.42-.25.7zm.42 14.16c0-.42.13-.78.4-1.08s.61-.47 1.02-.51l.62-.08c.13 0 .2-.08.2-.23l.09-.56c.07-.58.31-1.06.73-1.44.42-.39.91-.58 1.48-.58.58 0 1.09.19 1.51.58.43.39.68.87.75 1.44l.08.65c.06.15.14.23.24.23h1.32c.43 0 .8.16 1.12.47s.47.68.47 1.12c0 .45-.16.83-.47 1.15s-.69.48-1.12.48h-6.85c-.45 0-.83-.16-1.13-.48-.31-.32-.46-.71-.46-1.16zm4.42-6.39c.07-1.09.49-2.01 1.27-2.76.77-.74 1.71-1.12 2.79-1.12 1.11 0 2.06.4 2.84 1.19s1.17 1.76 1.17 2.89c0 .7-.17 1.35-.51 1.95s-.8 1.08-1.38 1.45c-.59-.49-1.27-.73-2.03-.73-.29-.88-.81-1.57-1.54-2.09s-1.56-.78-2.48-.78zm3.09-8.75c0 .27.1.51.29.7s.42.29.69.29c.28 0 .51-.1.7-.29s.29-.42.29-.7v-2.34c0-.26-.1-.48-.29-.66s-.42-.27-.7-.27c-.27 0-.5.09-.69.27s-.29.4-.29.66zm6.32 15.23c0 .27.09.5.27.7l1.64 1.62c.42.42.89.42 1.41 0 .18-.17.26-.39.26-.68 0-.27-.09-.49-.26-.67l-1.69-1.67c-.18-.17-.41-.25-.68-.25-.28 0-.5.09-.68.27s-.27.41-.27.68zm0-12.61c0 .28.09.52.27.72.18.18.41.27.68.27s.5-.09.68-.27l1.69-1.69c.18-.17.26-.39.26-.67s-.1-.51-.29-.69-.42-.28-.7-.28c-.26 0-.49.1-.68.29l-1.64 1.63c-.18.18-.27.41-.27.69zm2.58 6.34c0 .27.09.49.28.67s.43.26.72.26h1.69c.27 0 .5-.09.69-.27s.29-.4.29-.66c0-.29-.09-.53-.28-.71s-.42-.28-.69-.28h-1.69c-.29 0-.53.09-.72.28-.19.17-.29.41-.29.71z"/></svg>