<svg enable-background="new 0 0 30 30" viewBox="0 0 30 30" xmlns="http://www.w3.org/2000/svg"><path d="m3.1 16.97c0 .24.09.45.28.62.16.19.37.28.63.28h14.69c.29 0 .53.1.73.3s.3.45.3.74-.1.53-.3.72-.44.29-.74.29c-.29 0-.54-.1-.73-.29-.16-.18-.36-.26-.6-.26-.25 0-.46.09-.64.26s-.27.38-.27.61c0 .25.09.46.28.63.56.55 1.22.83 1.96.83.78 0 1.45-.27 2.01-.81s.83-1.19.83-1.97-.28-1.44-.84-2-1.23-.84-2-.84h-14.68c-.25 0-.46.09-.64.26s-.27.38-.27.63zm0-3.28c0 .23.09.43.28.61.17.18.38.26.63.26h20.04c.78 0 1.45-.27 2.01-.82.56-.54.84-1.2.84-1.97s-.28-1.44-.84-1.99-1.23-.83-2.01-.83c-.77 0-1.42.27-1.95.8-.18.16-.27.38-.27.67 0 .26.09.47.26.63s.38.24.63.24c.24 0 .45-.08.63-.24.19-.21.42-.31.7-.31.29 0 .53.1.73.3s.3.44.3.73-.1.53-.3.72-.44.29-.73.29h-20.04c-.25 0-.46.09-.64.26-.18.19-.27.4-.27.65zm1.57 6.92c0 .24.08.43.24.58.16.16.36.24.58.24.24 0 .45-.08.62-.23s.25-.35.25-.59c0-.23-.09-.43-.26-.6s-.38-.25-.61-.25c-.22 0-.42.08-.58.25s-.24.37-.24.6zm.95-9.93c0 .24.08.43.24.58.16.16.36.24.58.24.24 0 .45-.08.61-.23.17-.16.25-.35.25-.59 0-.23-.08-.43-.25-.6-.16-.16-.37-.25-.6-.25-.22 0-.42.08-.58.25-.17.17-.25.37-.25.6zm3.03-2.31c0 .24.08.43.24.58.16.17.36.25.58.25.24 0 .45-.08.62-.23.17-.16.25-.35.25-.59 0-.23-.09-.43-.26-.6-.16-.17-.37-.25-.61-.25-.22 0-.42.08-.58.25-.16.16-.24.36-.24.59zm.09 11.6c0 .23.08.43.25.58.16.16.35.24.57.24.24 0 .45-.08.62-.23.17-.16.25-.35.25-.59 0-.23-.09-.43-.26-.6s-.38-.25-.61-.25c-.22 0-.42.08-.58.25s-.24.37-.24.6zm4.18-9.83c0 .24.08.43.24.58.16.16.36.24.58.24.24 0 .45-.08.62-.23s.25-.35.25-.59c0-.23-.09-.43-.26-.6s-.38-.25-.61-.25-.42.08-.58.25-.24.37-.24.6zm.32 10.99c0 .23.08.42.25.58.16.16.35.24.57.24.24 0 .45-.08.62-.23.17-.16.25-.35.25-.59 0-.23-.09-.43-.26-.6s-.38-.25-.61-.25c-.22 0-.42.08-.58.25s-.24.37-.24.6zm4.48-11.15c0 .23.08.42.24.57.17.17.36.25.58.25.24 0 .45-.08.62-.23.17-.16.25-.35.25-.59 0-.23-.09-.43-.26-.6s-.38-.25-.61-.25c-.22 0-.41.08-.58.25-.15.17-.24.37-.24.6zm5.09 7.06c0 .24.08.43.24.58.16.16.36.24.58.24.24 0 .45-.08.61-.23.17-.16.25-.35.25-.59 0-.23-.08-.43-.25-.6s-.37-.25-.61-.25c-.23 0-.42.08-.58.25-.15.17-.24.37-.24.6z"/></svg>