<svg enable-background="new 0 0 30 30" viewBox="0 0 30 30" xmlns="http://www.w3.org/2000/svg"><path d="M3.7,15c0-2,0.5-3.9,1.5-5.7s2.4-3.1,4.1-4.1S13,3.7,15,3.7c1.5,0,3,0.3,4.4,0.9S22,6,23,7s1.8,2.2,2.4,3.6s0.9,2.9,0.9,4.4
	c0,1.5-0.3,3-0.9,4.4S24,22,23,23s-2.2,1.8-3.6,2.4s-2.8,0.9-4.4,0.9s-3-0.3-4.4-0.9S8,24,7,23s-1.8-2.2-2.4-3.6S3.7,16.5,3.7,15z
	 M6.2,15c0,2.4,0.9,4.4,2.6,6.2c1.7,1.7,3.8,2.6,6.2,2.6c1.6,0,3-0.4,4.4-1.2s2.4-1.9,3.2-3.2s1.2-2.8,1.2-4.4s-0.4-3.1-1.2-4.4
	s-1.9-2.4-3.2-3.2S16.6,6.2,15,6.2S12,6.6,10.6,7.4s-2.4,1.9-3.2,3.2S6.2,13.4,6.2,15z M11.1,20.9l3.8-13.1c0-0.1,0.1-0.2,0.1-0.2
	s0.1,0.1,0.1,0.2l3.7,13.1c0,0.1,0,0.2,0,0.2s-0.1,0.1-0.2,0l-3.5-1.3c-0.1,0-0.2,0-0.3,0l-3.5,1.3c-0.1,0.1-0.2,0.1-0.2,0
	S11.1,21,11.1,20.9z"/>
</svg>
