<svg xmlns="http://www.w3.org/2000/svg" viewBox="0 0 30 30"><path d="M3.9 17.6c0-1 .3-1.9.9-2.6s1.4-1.3 2.4-1.5c.3-1.2.8-2.1 1.8-2.9.9-.8 2-1.1 3.2-1.1 1.2 0 2.2.4 3.2 1.1.9.7 1.5 1.7 1.8 2.8h.3c1.2 0 2.2.4 3 1.2s1.2 1.8 1.2 3-.4 2.2-1.2 3-1.8 1.2-3 1.2H8.2c-.6 0-1.1-.1-1.7-.3s-1-.5-1.4-.9-.7-.8-.9-1.4-.3-1-.3-1.6zm10.3-8.7c-.1.1-.1.1.1.2.4.2.8.4 1.1.6h.2c.6-.6 1.3-.9 2.1-.9s1.5.3 2.1.8c.6.5.9 1.2 1 2l.1.6h1.4c.6 0 1.2.2 1.7.7s.7 1 .7 1.7c0 .6-.2 1.1-.6 1.6-.4.5-.9.7-1.5.8-.1 0-.1 0-.1.2v1.1c0 .1 0 .2.1.2 1-.1 1.9-.5 2.5-1.2s1-1.6 1-2.6c0-1.1-.4-2-1.1-2.7-.8-.8-1.6-1.1-2.7-1.1h-.1c-.3-1-.8-1.8-1.6-2.5s-1.8-1-2.8-1c-1.5-.1-2.7.4-3.6 1.5z"/></svg>