<svg viewBox="0 0 30 30" xmlns="http://www.w3.org/2000/svg"><path d="M6.72 20.76c0-.05.01-.12.02-.21v-4.76c.28.49.66.89 1.15 1.19s1.03.45 1.61.45c.59 0 1.13-.15 1.62-.45s.87-.69 1.15-1.19c.27.49.66.89 1.15 1.19s1.03.45 1.62.45c.58 0 1.12-.15 1.61-.45s.87-.69 1.15-1.19c.28.49.67.89 1.15 1.19.49.3 1.02.45 1.6.45s1.12-.15 1.61-.45.88-.69 1.15-1.19v5.12c-.03.23-.13.43-.3.6s-.37.27-.6.3c-.02 0-.05 0-.08.01s-.06.01-.08.01c-.01 0-.04 0-.07-.01s-.06-.01-.08-.01H7.94c-.02 0-.04 0-.08.01-.03.01-.06.01-.07.01-.02 0-.05 0-.08-.01s-.06-.01-.07-.01c-.22-.03-.42-.12-.58-.28s-.27-.34-.32-.56c-.01-.09-.02-.16-.02-.21zm5.51-11.09c0-.16.06-.3.17-.42l2.21-2.22.03-.02c.01 0 .01 0 .01-.01.01 0 .01 0 .01-.01.01 0 .01 0 .01-.01h.01c.01 0 .01 0 .01-.01s0-.01.01-.02h.02l.01-.01h.01l.01-.01h.01l.01-.01h.01c.01-.01.01-.01.02-.01h.01c0-.01.01-.01.02-.01.01-.01.01-.01.02-.01l.04-.02h.01c.01 0 .01 0 .01-.01h.07l.01-.01h.12c.01 0 .01 0 .02.01h.06c0 .01 0 .01.01.01h.02c.01.01.02.02.03.02l.02.01h.02l.01.01h.01l.01.01c.01 0 .01 0 .01.01h.04c.01.01.01.01.02.01 0 .01 0 .02.01.02l.01.01h.02l.01.01-.03.02.01.01.02.02 2.22 2.22c.12.12.18.26.18.42s-.06.3-.18.41c-.11.12-.25.18-.41.18s-.3-.06-.41-.18l-1.23-1.22v6.9c0 .16-.06.29-.17.4s-.25.17-.41.17-.3-.06-.42-.17-.17-.25-.17-.4v-6.9l-1.22 1.22c-.12.12-.26.18-.42.18s-.3-.06-.41-.18a.6.6 0 01-.16-.41z"/></svg>