<?xml version="1.0" encoding="utf-8"?>
<!-- Generator: Adobe Illustrator 24.0.3, SVG Export Plug-In . SVG Version: 6.00 Build 0)  -->
<svg version="1.1" id="Capa_1" xmlns="http://www.w3.org/2000/svg" xmlns:xlink="http://www.w3.org/1999/xlink" x="0px" y="0px"
	 viewBox="0 0 487.6 487.6" style="enable-background:new 0 0 487.6 487.6;" xml:space="preserve">
<g>
	<g id="XMLID_1736_">
		<path id="XMLID_1737_" d="M350.9,232.6c-20.3,0-36.7,16.5-36.7,36.7c0,4.8,4,8.8,8.8,8.8s8.8-4,8.8-8.8c0-10.5,8.6-19.2,19.2-19.2
			c4.8,0,8.8-4,8.8-8.8C359.7,236.5,355.8,232.6,350.9,232.6z"/>
		<path id="XMLID_1738_" d="M410.8,207.3c-2.1-2.1-4.4-4-6.8-5.9l0,0l-32.5-27.6c-12.5-8.9-27.4-14.5-43.6-15.6l1.7,1.7l-19.7-19.8
			h-0.2c-5.5-5-12.8-8.1-20.8-8.1c-13.8,0-25.4,9-29.4,21.4c-4-2.5-8.6-4-13.6-4.4c-0.8-0.1-1.7-0.1-2.5-0.1
			c-5.6,0-10.9,1.7-15.3,4.4c-4-12.4-15.7-21.3-29.4-21.3c-8,0-15.3,3-20.8,8.1h-0.2L158.1,160l1.7-1.7
			c-16.2,1.1-31.1,6.8-43.6,15.6l-32.5,27.6l0,0c-2.4,1.8-4.7,3.8-6.8,5.9c-16.2,15.7-26.3,37.6-26.3,62c0,47.5,38.7,86.2,86.2,86.2
			c43.9,0,80.3-33,85.5-75.6c6.3,3.6,13.7,5.7,21.5,5.7c7.8,0,15.1-2.1,21.5-5.7c5.3,42.5,41.6,75.5,85.5,75.5
			c47.5,0,86.2-38.7,86.2-86.2C437.1,244.9,427,223,410.8,207.3z M136.8,328.2c-32.5,0-58.8-26.3-58.8-58.8s26.3-58.8,58.8-58.8
			s58.8,26.3,58.8,58.8C195.7,301.8,169.3,328.2,136.8,328.2z M243.9,261.3c-10.5,0-19.1-8.6-19.1-19.1c0-10.5,8.6-19.1,19.1-19.1
			c10.5,0,19.1,8.6,19.1,19.1C263,252.7,254.4,261.3,243.9,261.3z M350.9,328.2c-32.5,0-58.8-26.3-58.8-58.8s26.3-58.8,58.8-58.8
			s58.8,26.3,58.8,58.8C409.7,301.8,383.4,328.2,350.9,328.2z"/>
		<path id="XMLID_1745_" d="M136.8,232.6c-20.3,0-36.7,16.5-36.7,36.7c0,4.8,4,8.8,8.8,8.8c4.8,0,8.8-4,8.8-8.8
			c0-10.5,8.6-19.2,19.2-19.2c4.8,0,8.8-4,8.8-8.8C145.6,236.5,141.7,232.6,136.8,232.6z"/>
	</g>
</g>
</svg>
