<svg xmlns="http://www.w3.org/2000/svg" xmlns:xlink="http://www.w3.org/1999/xlink" viewBox="0 0 487.6 487.6" xmlns:v="https://vecta.io/nano"><use xlink:href="#B"/><path d="M410.8 207.3c-2.1-2.1-4.4-4-6.8-5.9h0l-32.5-27.6c-12.5-8.9-27.4-14.5-43.6-15.6l1.7 1.7-19.7-19.8h-.2c-5.5-5-12.8-8.1-20.8-8.1-13.8 0-25.4 9-29.4 21.4-4-2.5-8.6-4-13.6-4.4-.8-.1-1.7-.1-2.5-.1-5.6 0-10.9 1.7-15.3 4.4-4-12.4-15.7-21.3-29.4-21.3-8 0-15.3 3-20.8 8.1h-.2L158.1 160l1.7-1.7c-16.2 1.1-31.1 6.8-43.6 15.6l-32.5 27.6a63.92 63.92 0 0 0-6.8 5.9c-16.2 15.7-26.3 37.6-26.3 62 0 47.5 38.7 86.2 86.2 86.2 43.9 0 80.3-33 85.5-75.6a43.39 43.39 0 0 0 21.5 5.7c7.8 0 15.1-2.1 21.5-5.7 5.3 42.5 41.6 75.5 85.5 75.5 47.5 0 86.2-38.7 86.2-86.2.1-24.4-10-46.3-26.2-62zm-274 120.9c-32.5 0-58.8-26.3-58.8-58.8s26.3-58.8 58.8-58.8 58.8 26.3 58.8 58.8c.1 32.4-26.3 58.8-58.8 58.8zm107.1-66.9c-10.5 0-19.1-8.6-19.1-19.1s8.6-19.1 19.1-19.1 19.1 8.6 19.1 19.1-8.6 19.1-19.1 19.1zm107 66.9c-32.5 0-58.8-26.3-58.8-58.8s26.3-58.8 58.8-58.8 58.8 26.3 58.8 58.8c0 32.4-26.3 58.8-58.8 58.8z"/><use xlink:href="#B" x="-214.1"/><defs ><path id="B" d="M350.9 232.6c-20.3 0-36.7 16.5-36.7 36.7 0 4.8 4 8.8 8.8 8.8s8.8-4 8.8-8.8c0-10.5 8.6-19.2 19.2-19.2 4.8 0 8.8-4 8.8-8.8a8.88 8.88 0 0 0-8.9-8.7z"/></defs></svg>