<svg xmlns="http://www.w3.org/2000/svg" width="108.336" height="108.336" viewBox="0 0 108.336 108.336"><path d="M54.168 0C24.3 0 0 24.3 0 54.168c0 29.869 24.3 54.168 54.168 54.168s54.168-24.299 54.168-54.168C108.336 24.3 84.036 0 54.168 0zm37.35 91.701c-10.416 10.372-22.865 15.558-37.35 15.558 3.111 0 5.779-5.187 8.01-15.558 2.23-10.374 3.346-22.885 3.346-37.533 0-14.608-1.115-27.107-3.347-37.503-2.23-10.392-4.898-15.588-8.009-15.588 14.484 0 26.934 5.197 37.35 15.588 10.412 10.396 15.619 22.895 15.619 37.503 0 14.648-5.207 27.159-15.619 37.533z"/></svg>