<svg xmlns="http://www.w3.org/2000/svg" width="108.336" height="108.336" viewBox="0 0 108.336 108.336"><path d="M54.168 0C24.3 0 0 24.3 0 54.168c0 29.869 24.3 54.168 54.168 54.168s54.168-24.299 54.168-54.168C108.336 24.3 84.036 0 54.168 0zM33.205 91.702c5.85 10.373 12.889 15.558 21.112 15.558-14.606 0-27.108-5.185-37.5-15.558C6.423 81.329 1.227 68.816 1.227 54.168c0-14.607 5.197-27.107 15.59-37.502C27.209 6.274 39.711 1.077 54.317 1.077c-8.223 0-15.263 5.198-21.112 15.589-5.852 10.395-8.777 22.895-8.777 37.502 0 14.648 2.925 27.161 8.777 37.534z"/></svg>