<svg xmlns="http://www.w3.org/2000/svg" width="108.336" height="108.336" viewBox="0 0 108.336 108.336"><path d="M54.168 0C24.3 0 0 24.3 0 54.168c0 29.869 24.3 54.168 54.168 54.168s54.168-24.299 54.168-54.168C108.336 24.3 84.036 0 54.168 0zm37.309 91.701c-10.412 10.374-22.883 15.559-37.406 15.559-11.91 0-22.109-5.186-30.6-15.559-8.49-10.373-12.735-22.883-12.735-37.533 0-14.607 4.244-27.108 12.734-37.5C31.96 6.274 42.159 1.076 54.07 1.076c14.523 0 26.995 5.198 37.407 15.592 10.414 10.392 15.621 22.893 15.621 37.5 0 14.65-5.207 27.16-15.621 37.533z"/></svg>