<svg xmlns="http://www.w3.org/2000/svg" width="108.336" height="108.336" viewBox="0 0 108.336 108.336"><path d="M54.168 0C24.3 0 0 24.3 0 54.168c0 29.869 24.3 54.168 54.168 54.168s54.168-24.299 54.168-54.168C108.336 24.3 84.036 0 54.168 0zm37.699 91.826c-10.415 10.374-22.926 15.559-37.532 15.559-3.193 0-5.894-5.186-8.103-15.559-2.21-10.373-3.315-22.883-3.315-37.533 0-14.607 1.105-27.108 3.315-37.5 2.209-10.394 4.909-15.592 8.103-15.592 14.606 0 27.117 5.198 37.532 15.592 10.41 10.392 15.617 22.893 15.617 37.5 0 14.65-5.207 27.16-15.617 37.533z"/></svg>