<svg xmlns="http://www.w3.org/2000/svg" width="108.336" height="108.336" viewBox="0 0 108.336 108.336"><path d="M54.168 0C24.3 0 0 24.3 0 54.168c0 29.869 24.3 54.168 54.168 54.168s54.168-24.299 54.168-54.168C108.336 24.3 84.036 0 54.168 0zm37.35 91.611c-10.416 10.373-22.906 15.559-37.474 15.559 13.299 0 24.714-5.188 34.25-15.559 9.533-10.373 14.301-22.885 14.301-37.532 0-14.608-4.768-27.107-14.301-37.503C78.758 6.184 67.343.987 54.044.987c14.565 0 27.058 5.197 37.474 15.588 10.41 10.396 15.617 22.895 15.617 37.503 0 14.649-5.207 27.16-15.617 37.533z"/></svg>