<svg xmlns="http://www.w3.org/2000/svg" width="108.336" height="108.336" viewBox="0 0 108.336 108.336"><path d="M54.168 0C24.3 0 0 24.3 0 54.168c0 29.869 24.3 54.168 54.168 54.168s54.168-24.299 54.168-54.168C108.336 24.3 84.036 0 54.168 0zm-7.504 91.701c2.207 10.372 4.908 15.559 8.102 15.559-14.566 0-27.047-5.187-37.441-15.559C6.93 81.327 1.736 68.816 1.736 54.168c0-14.608 5.193-27.107 15.588-37.502C27.719 6.275 40.199 1.076 54.765 1.076c-3.193 0-5.895 5.199-8.102 15.59-2.21 10.395-3.315 22.894-3.315 37.502 0 14.648 1.105 27.159 3.316 37.533z"/></svg>