<svg xmlns="http://www.w3.org/2000/svg" width="108.336" height="108.336" viewBox="0 0 108.336 108.336"><path d="M54.168 0C24.3 0 0 24.3 0 54.168c0 29.869 24.3 54.168 54.168 54.168s54.168-24.299 54.168-54.168C108.336 24.3 84.036 0 54.168 0zM39.709 91.702c4.194 10.373 9.197 15.558 15.007 15.558-14.648 0-27.181-5.185-37.593-15.558C6.708 81.329 1.503 68.816 1.503 54.168c0-14.607 5.205-27.107 15.62-37.502C27.535 6.274 40.067 1.077 54.716 1.077c-5.81 0-10.813 5.198-15.007 15.589-4.194 10.395-6.29 22.895-6.29 37.502 0 14.648 2.096 27.161 6.29 37.534z"/></svg>