<svg xmlns="http://www.w3.org/2000/svg" width="108.336" height="108.336" viewBox="0 0 108.336 108.336"><path d="M54.168 0C24.3 0 0 24.3 0 54.168c0 29.869 24.3 54.168 54.168 54.168s54.168-24.299 54.168-54.168C108.336 24.3 84.036 0 54.168 0zM91.87 91.701C81.457 102.075 68.966 107.26 54.4 107.26c-8.225 0-15.262-5.186-21.113-15.559-5.853-10.373-8.777-22.883-8.777-37.533 0-14.607 2.924-27.108 8.776-37.5C39.138 6.274 46.175 1.076 54.4 1.076c14.566 0 27.058 5.198 37.47 15.592 10.414 10.392 15.622 22.893 15.622 37.5 0 14.65-5.208 27.16-15.622 37.533z"/></svg>