<svg xmlns="http://www.w3.org/2000/svg" width="108.336" height="108.336" viewBox="0 0 108.336 108.336"><path d="M54.168 0C24.3 0 0 24.3 0 54.168c0 29.869 24.3 54.168 54.168 54.168s54.168-24.299 54.168-54.168C108.336 24.3 84.036 0 54.168 0zm37.471 91.611c-10.412 10.371-22.904 15.559-37.471 15.559 8.186 0 15.211-5.188 21.083-15.559 5.871-10.373 8.808-22.885 8.808-37.532 0-14.608-2.937-27.107-8.808-37.503C69.38 6.184 62.354.987 54.168.987c14.566 0 27.059 5.197 37.471 15.588 10.413 10.396 15.622 22.895 15.622 37.503.001 14.649-5.208 27.16-15.622 37.533z"/></svg>