<svg xmlns="http://www.w3.org/2000/svg" width="108.336" height="108.336" viewBox="0 0 108.336 108.336"><path d="M54.168 0C24.3 0 0 24.3 0 54.168c0 29.869 24.3 54.168 54.168 54.168s54.168-24.299 54.168-54.168C108.336 24.3 84.036 0 54.168 0zm37.531 91.611c-10.412 10.371-22.924 15.559-37.531 15.559 5.77 0 10.75-5.188 14.945-15.559 4.191-10.373 6.291-22.885 6.291-37.532 0-14.608-2.1-27.107-6.291-37.503C64.918 6.184 59.938.987 54.168.987c14.607 0 27.119 5.197 37.531 15.588 10.414 10.396 15.621 22.895 15.621 37.503 0 14.649-5.207 27.16-15.621 37.533z"/></svg>