<svg xmlns="http://www.w3.org/2000/svg" width="108.336" height="108.336" viewBox="0 0 108.336 108.336"><path d="M54.168 0C24.3 0 0 24.3 0 54.168c0 29.869 24.3 54.168 54.168 54.168s54.168-24.299 54.168-54.168C108.336 24.3 84.036 0 54.168 0zm26.721 91.701c-7.242 10.372-15.938 15.559-26.086 15.559-14.648 0-27.182-5.187-37.593-15.559C6.795 81.327 1.588 68.816 1.588 54.168c0-14.608 5.207-27.107 15.622-37.502C27.622 6.275 40.155 1.076 54.803 1.076c10.146 0 18.844 5.199 26.086 15.59C88.13 27.061 91.751 39.56 91.751 54.168c0 14.648-3.621 27.159-10.862 37.533z"/></svg>