<svg xmlns="http://www.w3.org/2000/svg" width="108.336" height="108.336" viewBox="0 0 108.336 108.336"><path d="M54.168 0C24.3 0 0 24.3 0 54.168c0 29.869 24.3 54.168 54.168 54.168s54.168-24.299 54.168-54.168C108.336 24.3 84.036 0 54.168 0zm37.533 91.611c-10.413 10.371-22.926 15.559-37.533 15.559 11.909 0 22.117-5.188 30.628-15.559 8.511-10.373 12.767-22.885 12.767-37.532 0-14.608-4.256-27.107-12.767-37.503C76.285 6.184 66.077.987 54.168.987c14.607 0 27.12 5.197 37.533 15.588 10.414 10.396 15.621 22.895 15.621 37.503 0 14.649-5.209 27.16-15.621 37.533z"/></svg>