<svg xmlns="http://www.w3.org/2000/svg" width="108.336" height="108.336" viewBox="0 0 108.336 108.336"><path d="M54.168 0C24.3 0 0 24.3 0 54.168c0 29.869 24.3 54.168 54.168 54.168s54.168-24.299 54.168-54.168C108.336 24.3 84.036 0 54.168 0zm37.764 91.701c-10.414 10.373-22.863 15.559-37.348 15.559-5.81 0-10.813-5.186-15.008-15.559-4.194-10.373-6.291-22.883-6.291-37.533 0-14.607 2.097-27.108 6.291-37.5C43.771 6.274 48.774 1.076 54.584 1.076c14.484 0 26.934 5.198 37.348 15.592 10.413 10.392 15.621 22.893 15.621 37.5 0 14.65-5.208 27.16-15.621 37.533z"/></svg>