<svg xmlns="http://www.w3.org/2000/svg" width="108.336" height="108.336" viewBox="0 0 108.336 108.336"><path d="M54.168 0C24.3 0 0 24.3 0 54.168c0 29.869 24.3 54.168 54.168 54.168s54.168-24.299 54.168-54.168C108.336 24.3 84.036 0 54.168 0zm37.348 91.611c-10.414 10.371-22.863 15.559-37.348 15.559 10.146 0 18.841-5.188 26.084-15.559 7.243-10.373 10.863-22.885 10.863-37.532 0-14.608-3.62-27.107-10.863-37.503C73.009 6.184 64.314.987 54.168.987c14.484 0 26.934 5.197 37.348 15.588 10.414 10.396 15.621 22.895 15.621 37.503-.001 14.649-5.207 27.16-15.621 37.533z"/></svg>