<svg xmlns="http://www.w3.org/2000/svg" width="108.336" height="108.336" viewBox="0 0 108.336 108.336"><path d="M54.168 0C24.3 0 0 24.3 0 54.168c0 29.869 24.3 54.168 54.168 54.168s54.168-24.299 54.168-54.168C108.336 24.3 84.036 0 54.168 0zm37.154 91.701c-10.416 10.374-22.904 15.559-37.473 15.559-13.297 0-24.701-5.186-34.217-15.559C10.119 81.328 5.363 68.818 5.363 54.168c0-14.607 4.756-27.108 14.27-37.5C29.148 6.274 40.553 1.076 53.85 1.076c14.568 0 27.056 5.198 37.472 15.592 10.412 10.392 15.619 22.893 15.619 37.5 0 14.65-5.207 27.16-15.619 37.533z"/></svg>