<svg xmlns="http://www.w3.org/2000/svg" width="108.336" height="108.336" viewBox="0 0 108.336 108.336"><path d="M54.168 0C24.3 0 0 24.3 0 54.168c0 29.869 24.3 54.168 54.168 54.168s54.168-24.299 54.168-54.168C108.336 24.3 84.036 0 54.168 0zM20.25 91.702c9.514 10.373 20.918 15.558 34.217 15.558-14.607 0-27.107-5.185-37.502-15.558C6.572 81.329 1.375 68.816 1.375 54.168c0-14.607 5.197-27.107 15.59-37.502C27.359 6.274 39.859 1.077 54.467 1.077c-13.299 0-24.703 5.198-34.217 15.589C10.736 27.061 5.979 39.561 5.979 54.168c0 14.648 4.757 27.161 14.271 37.534z"/></svg>