<?xml version="1.0" encoding="utf-8"?>
<!-- Generator: Adobe Illustrator 24.0.3, SVG Export Plug-In . SVG Version: 6.00 Build 0)  -->
<svg version="1.1" id="Layer_1" xmlns="http://www.w3.org/2000/svg" xmlns:xlink="http://www.w3.org/1999/xlink" x="0px" y="0px"
	 viewBox="0 0 30 30" style="enable-background:new 0 0 30 30;" xml:space="preserve">
<path d="M4.4,14.9c0-0.2,0.1-0.4,0.2-0.6c0.2-0.2,0.4-0.2,0.6-0.2h2c0.2,0,0.4,0.1,0.6,0.2c0.2,0.2,0.2,0.4,0.2,0.6S8,15.4,7.8,15.5
	c-0.2,0.2-0.3,0.2-0.6,0.2h-2c-0.2,0-0.4-0.1-0.6-0.2C4.5,15.4,4.4,15.2,4.4,14.9z M7.2,21.8c0-0.2,0.1-0.4,0.2-0.6l1.5-1.4
	c0.1-0.2,0.4-0.2,0.6-0.2s0.4,0.1,0.6,0.2s0.2,0.3,0.2,0.6c0,0.2-0.1,0.5-0.2,0.6l-1.4,1.4c-0.4,0.3-0.8,0.3-1.2,0
	C7.3,22.3,7.2,22.1,7.2,21.8z M7.2,8c0-0.2,0.1-0.4,0.2-0.6c0.2-0.2,0.4-0.2,0.6-0.2c0.2,0,0.4,0.1,0.6,0.2l1.4,1.5
	c0.2,0.1,0.2,0.4,0.2,0.6s-0.1,0.4-0.2,0.6s-0.4,0.2-0.6,0.2c-0.2,0-0.4-0.1-0.6-0.2L7.5,8.6C7.3,8.5,7.2,8.2,7.2,8z M9.8,14.9
	c0-0.9,0.2-1.8,0.7-2.6s1.1-1.4,1.9-1.9s1.7-0.7,2.6-0.7c0.7,0,1.4,0.1,2,0.4c0.6,0.3,1.2,0.6,1.7,1.1c0.5,0.5,0.8,1,1.1,1.7
	c0.3,0.6,0.4,1.3,0.4,2c0,0.9-0.2,1.8-0.7,2.6c-0.5,0.8-1.1,1.4-1.9,1.9s-1.7,0.7-2.6,0.7s-1.8-0.2-2.6-0.7
	c-0.8-0.5-1.4-1.1-1.9-1.9C10,16.7,9.8,15.9,9.8,14.9z M11.5,14.9c0,1,0.3,1.8,1,2.5c0.7,0.7,1.5,1,2.5,1s1.8-0.4,2.5-1s1-1.5,1-2.5
	c0-1-0.4-1.8-1-2.5c-0.7-0.7-1.5-1-2.5-1c-1,0-1.8,0.3-2.5,1C11.8,13.1,11.5,14,11.5,14.9z M14.1,22.7c0-0.2,0.1-0.4,0.2-0.6
	s0.4-0.2,0.6-0.2c0.2,0,0.4,0.1,0.6,0.2s0.2,0.4,0.2,0.6v2c0,0.2-0.1,0.5-0.2,0.6s-0.4,0.2-0.6,0.2s-0.4-0.1-0.6-0.2
	c-0.2-0.2-0.2-0.4-0.2-0.6C14.1,24.7,14.1,22.7,14.1,22.7z M14.1,7.2v-2c0-0.2,0.1-0.4,0.2-0.6s0.4-0.3,0.6-0.3s0.4,0.1,0.6,0.2
	s0.2,0.4,0.2,0.6v2.1c0,0.2-0.1,0.4-0.2,0.6S15.2,8,15,8s-0.4-0.1-0.6-0.2S14.1,7.4,14.1,7.2z M19.7,20.4c0-0.2,0.1-0.4,0.2-0.6
	c0.1-0.2,0.3-0.2,0.6-0.2c0.2,0,0.4,0.1,0.6,0.2l1.5,1.4c0.2,0.2,0.2,0.4,0.2,0.6c0,0.2-0.1,0.4-0.2,0.6c-0.4,0.3-0.8,0.3-1.2,0
	L19.9,21C19.7,20.8,19.7,20.6,19.7,20.4z M19.7,9.5c0-0.2,0.1-0.4,0.2-0.6l1.4-1.5c0.2-0.2,0.4-0.2,0.6-0.2c0.2,0,0.4,0.1,0.6,0.2
	c0.2,0.2,0.2,0.4,0.2,0.6c0,0.2-0.1,0.5-0.2,0.6L21,10.1c-0.2,0.2-0.4,0.2-0.6,0.2c-0.2,0-0.4-0.1-0.6-0.2S19.7,9.7,19.7,9.5z
	 M21.9,14.9c0-0.2,0.1-0.4,0.2-0.6c0.2-0.2,0.4-0.2,0.6-0.2h2c0.2,0,0.4,0.1,0.6,0.3s0.3,0.4,0.3,0.6s-0.1,0.4-0.3,0.6
	s-0.4,0.2-0.6,0.2h-2c-0.2,0-0.4-0.1-0.6-0.2S21.9,15.2,21.9,14.9z"/>
</svg>
