<svg enable-background="new 0 0 30 30" viewBox="0 0 30 30" xmlns="http://www.w3.org/2000/svg"><path d="m3.74 14.43c0-2.04.51-3.92 1.52-5.65s2.38-3.08 4.11-4.09 3.61-1.5 5.65-1.5 3.92.5 5.65 1.5 3.09 2.36 4.09 4.09 1.5 3.61 1.5 5.65-.5 3.93-1.5 5.65-2.36 3.1-4.09 4.11-3.61 1.52-5.65 1.52-3.93-.51-5.65-1.52-3.1-2.38-4.11-4.11-1.52-3.61-1.52-5.65zm1.2 0c0 1.36.27 2.66.81 3.9s1.25 2.32 2.15 3.22 1.97 1.62 3.22 2.15 2.55.81 3.9.81c.86 0 1.62-.09 2.29-.28.83-.44 1.55-.96 2.17-1.57s1.1-1.22 1.46-1.85.64-1.33.86-2.09.36-1.48.43-2.14.1-1.37.1-2.15c0-.93-.1-1.84-.3-2.74s-.51-1.79-.93-2.67-.99-1.72-1.72-2.5-1.57-1.45-2.54-1.99c-.4-.09-1.01-.13-1.82-.13-1.36 0-2.66.26-3.9.79s-2.32 1.24-3.22 2.13-1.62 1.97-2.15 3.2-.81 2.54-.81 3.91z"/></svg>